<?xml version="1.0" encoding="utf-8"?>
<svg id="Layer_1" data-name="Layer 1" xmlns="http://www.w3.org/2000/svg" xmlns:xlink="http://www.w3.org/1999/xlink" viewBox="0 0 200 200">
  <defs>
    <style>
      .cls-1 {
        fill: url(#linear-gradient);
      }

      .cls-2 {
        fill: #fff;
      }

      .cls-3 {
        fill: url(#Analogous_3);
      }

      .cls-4 {
        fill: #231f20;
      }
    </style>
    <linearGradient id="linear-gradient" x2="200" y2="200" gradientUnits="userSpaceOnUse">
      <stop offset="0" stop-color="#fff"/>
      <stop offset="0.24" stop-color="#fbfbfb"/>
      <stop offset="0.49" stop-color="#eff0f0"/>
      <stop offset="0.73" stop-color="#dbdcdd"/>
      <stop offset="0.96" stop-color="#c0c2c3"/>
      <stop offset="1" stop-color="#bbbdbf"/>
    </linearGradient>
    <linearGradient id="Analogous_3" data-name="Analogous 3" x1="42.98" y1="152.94" x2="143.27" y2="52.65" gradientUnits="userSpaceOnUse">
      <stop offset="0" stop-color="#00a995"/>
      <stop offset="0" stop-color="#3c3795"/>
      <stop offset="0.51" stop-color="#a53594"/>
      <stop offset="1" stop-color="#da2128"/>
    </linearGradient>
  </defs>
  <title>dolphiq-craft-plugin-icon-Yf copy</title>
  <rect class="cls-1" width="200" height="200"/>
  <g>
    <g>
      <path class="cls-2" d="M57.42,98.82l-18-3Q30.78,94.5,27,89.34T23.22,74.1a38.56,38.56,0,0,1,1.44-11.7,11.3,11.3,0,0,1,5-6.48,20.73,20.73,0,0,1,7.68-2.7,74.65,74.65,0,0,1,11.34-.48,191.72,191.72,0,0,1,23,1.68L71.22,58q-16.56-.84-22.44-.84-4.32,0-6.6.12a42.76,42.76,0,0,0-5,.6,8.87,8.87,0,0,0-4.08,1.56,15,15,0,0,0-2.64,2.94,10.76,10.76,0,0,0-1.74,4.74,50.21,50.21,0,0,0-.42,7.08q0,8.4,2.82,12.18t9.54,4.86l18,3q9.12,1.32,12.9,6.42t3.78,15.66A35.88,35.88,0,0,1,73.74,128a12.3,12.3,0,0,1-5.16,6.66,20.92,20.92,0,0,1-7.86,2.88,77.35,77.35,0,0,1-11.34.66,181.1,181.1,0,0,1-24.72-1.56L25,132.9q14.16,1,24.6.84a68.32,68.32,0,0,0,9.72-.72,15.85,15.85,0,0,0,6.18-2.4,9.18,9.18,0,0,0,3.72-5.22,32.66,32.66,0,0,0,1-9.06q0-9-2.88-12.72T57.42,98.82Z"/>
      <path class="cls-2" d="M93.5,79,94,89.22q13.32-11.64,25.2-11.64,12.6,0,14.64,11.52,13.32-11.52,25.08-11.52,15,0,15,15.84v43.44h-4.68V94.38Q169.1,81.9,157.46,81.9a22.83,22.83,0,0,0-10.32,2.52,89.13,89.13,0,0,0-13,8.52v43.92H129.5V94.38q0-12.48-11.76-12.48a23,23,0,0,0-10.26,2.52,87,87,0,0,0-13,8.52v43.92H89.78V79Z"/>
    </g>
    <g>
      <path class="cls-3" d="M57.42,96.82l-18-3Q30.78,92.5,27,87.34T23.22,72.1a38.56,38.56,0,0,1,1.44-11.7,11.3,11.3,0,0,1,5-6.48,20.73,20.73,0,0,1,7.68-2.7,74.65,74.65,0,0,1,11.34-.48,191.72,191.72,0,0,1,23,1.68L71.22,56q-16.56-.84-22.44-.84-4.32,0-6.6.12a42.76,42.76,0,0,0-5,.6,8.87,8.87,0,0,0-4.08,1.56,15,15,0,0,0-2.64,2.94,10.76,10.76,0,0,0-1.74,4.74,50.21,50.21,0,0,0-.42,7.08q0,8.4,2.82,12.18t9.54,4.86l18,3q9.12,1.32,12.9,6.42t3.78,15.66A35.88,35.88,0,0,1,73.74,126a12.3,12.3,0,0,1-5.16,6.66,20.92,20.92,0,0,1-7.86,2.88,77.35,77.35,0,0,1-11.34.66,181.1,181.1,0,0,1-24.72-1.56L25,130.9q14.16,1,24.6.84a68.32,68.32,0,0,0,9.72-.72,15.85,15.85,0,0,0,6.18-2.4,9.18,9.18,0,0,0,3.72-5.22,32.66,32.66,0,0,0,1-9.06q0-9-2.88-12.72T57.42,96.82Z"/>
      <path class="cls-3" d="M93.5,77,94,87.22q13.32-11.64,25.2-11.64,12.6,0,14.64,11.52,13.32-11.52,25.08-11.52,15,0,15,15.84v43.44h-4.68V92.38Q169.1,79.9,157.46,79.9a22.83,22.83,0,0,0-10.32,2.52,89.13,89.13,0,0,0-13,8.52v43.92H129.5V92.38q0-12.48-11.76-12.48a23,23,0,0,0-10.26,2.52,87,87,0,0,0-13,8.52v43.92H89.78V77Z"/>
    </g>
  </g>
  <g id="Layer_2" data-name="Layer 2">
    <g id="Layer_1-2" data-name="Layer 1-2">
      <path class="cls-4" d="M190,182a9.17,9.17,0,0,0-.55-3.2,7.29,7.29,0,0,0-1.55-2.5,6.88,6.88,0,0,0-2.37-1.61,7.7,7.7,0,0,0-3-.57,8,8,0,0,0-3,.56,6.77,6.77,0,0,0-2.36,1.6l-.06.07c-.21.23-.4.47-.58.71a5.88,5.88,0,0,0-.52-.6l-.08-.07a6.69,6.69,0,0,0-2.28-1.46,8.26,8.26,0,0,0-3-.54H165v15.2h5.66a8.33,8.33,0,0,0,3-.54,6.88,6.88,0,0,0,2.29-1.42l.08-.08a7.45,7.45,0,0,0,.52-.6,6.79,6.79,0,0,0,1-1.78,8.52,8.52,0,0,0,.55-3.16,7.66,7.66,0,0,1,.29-2.13,6.56,6.56,0,0,1,.23-.62,4.19,4.19,0,0,1,.63-1,3.93,3.93,0,0,1,1.39-1.1,5,5,0,0,1,3.8,0,3.93,3.93,0,0,1,1.39,1.07,4.72,4.72,0,0,1,.85,1.65A7.46,7.46,0,0,1,187,182a6.25,6.25,0,0,1-.59,2.86l-1.91-1.59-1.6,1.92,1.81,1.54a4.93,4.93,0,0,1-4.06.12,3.9,3.9,0,0,1-1.38-1.07,4.19,4.19,0,0,1-.63-1c-.07.25-.15.49-.24.73a8,8,0,0,1-1.27,2.15l.05.07a7,7,0,0,0,2.37,1.6,8,8,0,0,0,3,.56,7.18,7.18,0,0,0,4.37-1.32l1.5,1.23,1.58-1.92-1.34-1.1A8.49,8.49,0,0,0,190,182Zm-15.45,2.73a3.92,3.92,0,0,1-.6.9,4.13,4.13,0,0,1-3.29,1.28h-2.87V177.1h2.87a4.13,4.13,0,0,1,3.29,1.28,3.88,3.88,0,0,1,.6.91,7.15,7.15,0,0,1,0,5.45Z"/>
    </g>
  </g>
</svg>
